<svg xmlns="http://www.w3.org/2000/svg" width="88" height="24" viewBox="0 0 88 24" fill="none">
  <path d="M26.289 11.835L36.824 1.30005M26.289 11.835L19.8022 5.34822C17.9 3.44607 15.6565 1.78778 12.0473 1.78778C6.58468 1.78778 2 6.22614 2 11.835C2 17.444 6.58468 21.8823 12.0473 21.8823C15.5589 21.8823 17.9 20.224 19.8022 18.3219L23.0456 15.0785L26.289 11.835ZM26.289 11.835L36.0924 21.6385L53.0167 4.71417C53.6995 4.03135 56.3821 1.78778 60.1864 1.78778C63.9907 1.78778 66.283 3.68993 67.3072 4.71417C69.1458 6.55274 70.2629 9.00621 70.2629 11.835C70.2629 14.6639 69.1119 17.2001 67.3072 19.0047L63.9419 22.37L85.0119 1.30005" stroke="currentColor" stroke-width="3"></path>
</svg>